<svg xmlns="http://www.w3.org/2000/svg" version="1.1" xmlns:xlink="http://www.w3.org/1999/xlink" width="512" height="512" x="0" y="0" viewBox="0 0 496 496" style="enable-background:new 0 0 512 512" xml:space="preserve" class=""><rect width="496" height="496" rx="99.2" ry="99.2" fill="#1d4ed8" shape="rounded"></rect><g transform="matrix(0.7,0,0,0.7,74.4,74.4)"><path d="M347.57 80H62.75C52.41 80 44 88.41 44 98.75v378.5C44 487.59 52.41 496 62.75 496h284.82c10.33 0 18.74-8.41 18.74-18.75V98.75c0-10.34-8.41-18.75-18.74-18.75zM284 344H132c-8.84 0-16-7.16-16-16s7.16-16 16-16h152c8.84 0 16 7.16 16 16s-7.16 16-16 16zm0-64H132c-8.84 0-16-7.16-16-16s7.16-16 16-16h152c8.84 0 16 7.16 16 16s-7.16 16-16 16zm0-64H132c-8.84 0-16-7.16-16-16s7.16-16 16-16h152c8.84 0 16 7.16 16 16s-7.16 16-16 16z" fill="#ffffff" opacity="1" data-original="#000000" class=""></path><path d="M452 48v352c0 24.16-19.441 48-53.69 48V98.75c0-27.99-22.76-50.75-50.74-50.75H97.69c0-26.47 22.81-48 50.84-48h252.63C429.19 0 452 21.53 452 48z" fill="#ffffff" opacity="1" data-original="#000000" class=""></path></g></svg>