<svg xmlns="http://www.w3.org/2000/svg" version="1.1" xmlns:xlink="http://www.w3.org/1999/xlink" width="512" height="512" x="0" y="0" viewBox="0 0 512 512" style="enable-background:new 0 0 512 512" xml:space="preserve" class=""><rect width="512" height="512" rx="102.4" ry="102.4" fill="#1d4ed8" shape="rounded"></rect><g transform="matrix(0.7,0,0,0.7,76.80000000000001,76.80000000000001)"><path d="M406 302c0-33.084-26.916-60-60-60s-60 26.916-60 60h-75v30c0 46.673 87.326 60 135 60 47.463 0 135-13.257 135-60v-30zm-90 0c0-16.542 13.458-30 30-30s30 13.458 30 30z" fill="#ffffff" opacity="1" data-original="#000000" class=""></path><path d="M361 452h-30v-30.31c-39.237-1.615-88.717-10.292-120-34.04V512h270V387.64c-31.137 23.672-80.572 32.427-120 34.05z" fill="#ffffff" opacity="1" data-original="#000000" class=""></path><path d="M278.98 242H151v-30h150v12.07c13.24-7.67 28.62-12.07 45-12.07 5.11 0 10.12.43 15 1.26V0H31v482h150V272h80.15a90.095 90.095 0 0 1 17.83-30zM151 92h150v30H151zm0 60h150v30H151zm-30 90H91v-30h30zm0-60H91v-30h30zm0-60H91V92h30z" fill="#ffffff" opacity="1" data-original="#000000" class=""></path></g></svg>