<svg xmlns="http://www.w3.org/2000/svg" version="1.1" xmlns:xlink="http://www.w3.org/1999/xlink" width="512" height="512" x="0" y="0" viewBox="0 0 512 512" style="enable-background:new 0 0 512 512" xml:space="preserve" class=""><rect width="512" height="512" rx="102.4" ry="102.4" fill="#2563eb" shape="rounded"></rect><g transform="matrix(0.6,0,0,0.6,102.40020141601562,102.40000267028807)"><path fill-rule="evenodd" d="M97.5 504.001h317c5.508 0 10-4.492 10-10V478.02c0-14.289-14.633-25.981-32.517-25.981h-58.04v-60.581H465.87c20.972 0 38.131-17.159 38.131-38.131V91.007c0-20.971-17.159-38.13-38.131-38.13h-87.875v31.886h88.831c2.909 0 5.288 2.38 5.288 5.288v237.177H39.886V90.051c0-2.908 2.38-5.288 5.288-5.288h88.831V52.877H46.131C25.159 52.877 8 70.035 8 91.007v262.32c0 20.972 17.159 38.131 38.131 38.131h131.927v60.581h-58.04c-17.885 0-32.517 11.691-32.517 25.981v15.981c-.001 5.508 4.491 10 9.999 10zM155.544 7.999h156.104v31.577c0 10.356 8.413 18.77 18.77 18.77h31.577v218.872a5.55 5.55 0 0 1-5.539 5.539H155.544a5.55 5.55 0 0 1-5.54-5.539V13.539a5.552 5.552 0 0 1 5.54-5.54zm172.105.48v31.097a2.775 2.775 0 0 0 2.77 2.77h31.097a5.563 5.563 0 0 0-1.142-1.622L329.271 9.622a5.561 5.561 0 0 0-1.622-1.143zm-134.383 92.549a8 8 0 0 1 0-16h125.468a8 8 0 0 1 0 16zm0-36.976a8 8 0 0 1 0-16h90.067a8 8 0 0 1 0 16zm0 184.878a8 8 0 0 1 0-16h125.468a8 8 0 0 1 0 16zm0-36.975a8 8 0 0 1 0-16h125.468a8 8 0 0 1 0 16zm0-36.976a8 8 0 0 1 0-16h125.468a8 8 0 0 1 0 16zm0-36.976a8 8 0 0 1 0-16h125.468a8 8 0 0 1 0 16z" clip-rule="evenodd" fill="#ffffff" opacity="1" data-original="#000000" class=""></path></g></svg>