<svg xmlns="http://www.w3.org/2000/svg" version="1.1" xmlns:xlink="http://www.w3.org/1999/xlink" width="512" height="512" x="0" y="0" viewBox="0 0 24 24" style="enable-background:new 0 0 512 512" xml:space="preserve" class=""><rect width="24" height="24" rx="4.8" ry="4.8" fill="#1d4ed8" shape="rounded"></rect><g transform="matrix(0.7,0,0,0.7,3.6000000000000014,3.6000000000000014)"><path d="M12 10.25c-.689 0-1.25-.561-1.25-1.25s.561-1.25 1.25-1.25 1.25.561 1.25 1.25-.561 1.25-1.25 1.25zm.75 4.5v1.5H16A2.752 2.752 0 0 1 18.75 19c0 .965-.785 1.75-1.75 1.75H7c-.965 0-1.75-.785-1.75-1.75A2.752 2.752 0 0 1 8 16.25h3.25v-1.5H8c-3.171 0-5.75-2.579-5.75-5.75S4.829 3.25 8 3.25h8c3.171 0 5.75 2.579 5.75 5.75s-2.579 5.75-5.75 5.75zM16.25 8c0 .414.336.75.75.75h1a.75.75 0 0 0 0-1.5h-1a.75.75 0 0 0-.75.75zM12 11.75c1.517 0 2.75-1.233 2.75-2.75S13.517 6.25 12 6.25 9.25 7.483 9.25 9s1.233 2.75 2.75 2.75z" fill="#ffffff" opacity="1" data-original="#000000"></path></g></svg>