<svg width="48" height="48" viewBox="0 0 48 48" fill="none" xmlns="http://www.w3.org/2000/svg">
<path d="M36.6585 32.1872L36.3479 31.6438C36.3479 31.6438 36.7301 31.3902 36.7063 31.0159V16.9842C36.7063 16.9842 36.6824 16.5253 36.3479 16.3562L24.3325 9.34038C24.3325 9.34038 24.1653 9.24377 23.9503 9.25585C23.8428 9.25585 23.7354 9.28 23.6159 9.34038L11.5886 16.3562C11.5886 16.3562 11.2064 16.6098 11.2303 16.9842V31.0279C11.2303 31.0279 11.2541 31.4868 11.5886 31.6558L23.6159 38.6596C23.6159 38.6596 23.7831 38.7562 23.9981 38.7442C24.1056 38.7442 24.2131 38.72 24.3325 38.6596L36.3599 31.6438L36.6585 32.1872L36.969 32.7306L24.9417 39.7464C24.6192 39.9396 24.2728 40 23.9981 40C23.4248 40 23.0546 39.7706 22.9948 39.7464H22.9829L10.9675 32.7185C9.97616 32.1026 10.0001 31.0762 10.0001 31.0159V16.9842C10.0239 15.8128 10.9197 15.3177 10.9675 15.2815L22.9948 8.25358C23.3173 8.06038 23.6637 8 23.9384 8C24.5117 8 24.882 8.22943 24.9417 8.25358L36.969 15.2694C37.9603 15.8853 37.9365 16.9117 37.9365 16.9721V31.0159C37.9126 32.1992 37.0168 32.6823 36.969 32.7185L36.6585 32.1872Z" fill="url(#paint0_linear_475_18)"/>
<path d="M19.6978 20.4496C20.2353 21.3553 22.5524 25.4247 23.9259 27.8519H26.0758C24.4514 25.0383 21.4416 19.8338 20.6891 18.5659C20.6533 18.5055 20.6175 18.4934 20.5578 18.4934H20.5339C16.4491 18.4934 17.2852 18.4934 13.1885 18.4934V20.3893C16.9388 20.3893 15.8161 20.3893 19.5664 20.3893C19.6381 20.3893 19.6739 20.4013 19.6978 20.4496Z" fill="url(#paint1_linear_475_18)"/>
<path d="M20.5463 18.4934H13.2129C17.3096 18.5055 16.4735 18.5055 20.5463 18.4934Z" fill="url(#paint2_linear_475_18)"/>
<path d="M24.3447 28.5767C24.715 29.2287 24.9658 29.6635 24.9777 29.6876H27.1396C27.1396 29.6755 26.8887 29.2529 26.4946 28.5767H24.3447Z" fill="url(#paint3_linear_475_18)"/>
<path d="M29.0257 20.2685H31.5578C30.4948 22.2851 29.599 23.9877 28.3927 26.2458C28.3688 26.2096 24.8215 19.8096 24.0929 18.4813C24.0929 18.4813 21.9311 18.4692 21.9072 18.4813C23.9974 22.273 26.0278 25.9077 28.118 29.6874H28.6674C30.662 25.944 32.7521 22.2006 34.7348 18.4692H29.0257V20.2685Z" fill="url(#paint4_linear_475_18)"/>
<defs>
<linearGradient id="paint0_linear_475_18" x1="23.9731" y1="9.34726" x2="23.9731" y2="38.6525" gradientUnits="userSpaceOnUse">
<stop stop-color="#4ABEA7"/>
<stop offset="0.00318182" stop-color="#4ABEA7"/>
<stop offset="1" stop-color="#4D8ECB"/>
</linearGradient>
<linearGradient id="paint1_linear_475_18" x1="19.647" y1="18.4992" x2="19.647" y2="29.6862" gradientUnits="userSpaceOnUse">
<stop stop-color="#4ABEA7"/>
<stop offset="0.00318182" stop-color="#4ABEA7"/>
<stop offset="1" stop-color="#4D8ECB"/>
</linearGradient>
<linearGradient id="paint2_linear_475_18" x1="16.8811" y1="18.4992" x2="16.8811" y2="28.8416" gradientUnits="userSpaceOnUse">
<stop stop-color="#4ABEA7"/>
<stop offset="0.00318182" stop-color="#4ABEA7"/>
<stop offset="1" stop-color="#4D8ECB"/>
</linearGradient>
<linearGradient id="paint3_linear_475_18" x1="25.7413" y1="18.4994" x2="25.7413" y2="29.6865" gradientUnits="userSpaceOnUse">
<stop stop-color="#4ABEA7"/>
<stop offset="0.00318182" stop-color="#4ABEA7"/>
<stop offset="1" stop-color="#4D8ECB"/>
</linearGradient>
<linearGradient id="paint4_linear_475_18" x1="28.3256" y1="18.4674" x2="28.3256" y2="29.6863" gradientUnits="userSpaceOnUse">
<stop stop-color="#4ABEA7"/>
<stop offset="0.00318182" stop-color="#4ABEA7"/>
<stop offset="1" stop-color="#4D8ECB"/>
</linearGradient>
</defs>
</svg>
